<svg xmlns="http://www.w3.org/2000/svg" version="1.1" xmlns:xlink="http://www.w3.org/1999/xlink" xmlns:svgjs="http://svgjs.com/svgjs" width="1440" height="560" preserveAspectRatio="none" viewBox="0 0 1440 560"><g mask="url(&quot;#SvgjsMask1022&quot;)" fill="none"><rect width="1440" height="560" x="0" y="0" fill="#0e2a47"></rect><path d="M917 497L916 254" stroke-width="8" stroke="url(#SvgjsLinearGradient1023)" stroke-linecap="round" class="Down"></path><path d="M84 398L83 605" stroke-width="10" stroke="url(#SvgjsLinearGradient1024)" stroke-linecap="round" class="Up"></path><path d="M202 339L201 89" stroke-width="6" stroke="url(#SvgjsLinearGradient1024)" stroke-linecap="round" class="Up"></path><path d="M188 334L187 -75" stroke-width="6" stroke="url(#SvgjsLinearGradient1024)" stroke-linecap="round" class="Up"></path><path d="M826 497L825 175" stroke-width="6" stroke="url(#SvgjsLinearGradient1024)" stroke-linecap="round" class="Up"></path><path d="M904 479L903 840" stroke-width="8" stroke="url(#SvgjsLinearGradient1024)" stroke-linecap="round" class="Up"></path><path d="M606 306L605 448" stroke-width="6" stroke="url(#SvgjsLinearGradient1023)" stroke-linecap="round" class="Down"></path><path d="M527 152L526 568" stroke-width="10" stroke="url(#SvgjsLinearGradient1023)" stroke-linecap="round" class="Down"></path><path d="M234 125L233 -143" stroke-width="6" stroke="url(#SvgjsLinearGradient1023)" stroke-linecap="round" class="Down"></path><path d="M176 78L175 478" stroke-width="8" stroke="url(#SvgjsLinearGradient1024)" stroke-linecap="round" class="Up"></path><path d="M384 229L383 472" stroke-width="8" stroke="url(#SvgjsLinearGradient1024)" stroke-linecap="round" class="Up"></path><path d="M487 509L486 363" stroke-width="8" stroke="url(#SvgjsLinearGradient1024)" stroke-linecap="round" class="Up"></path><path d="M12 431L11 757" stroke-width="8" stroke="url(#SvgjsLinearGradient1024)" stroke-linecap="round" class="Up"></path><path d="M507 439L506 811" stroke-width="10" stroke="url(#SvgjsLinearGradient1024)" stroke-linecap="round" class="Up"></path><path d="M703 307L702 131" stroke-width="10" stroke="url(#SvgjsLinearGradient1023)" stroke-linecap="round" class="Down"></path><path d="M1415 4L1414 -179" stroke-width="10" stroke="url(#SvgjsLinearGradient1024)" stroke-linecap="round" class="Up"></path><path d="M219 126L218 483" stroke-width="10" stroke="url(#SvgjsLinearGradient1023)" stroke-linecap="round" class="Down"></path><path d="M1332 504L1331 894" stroke-width="6" stroke="url(#SvgjsLinearGradient1023)" stroke-linecap="round" class="Down"></path><path d="M972 495L971 911" stroke-width="10" stroke="url(#SvgjsLinearGradient1023)" stroke-linecap="round" class="Down"></path><path d="M1260 387L1259 -16" stroke-width="8" stroke="url(#SvgjsLinearGradient1023)" stroke-linecap="round" class="Down"></path><path d="M1241 187L1240 -65" stroke-width="6" stroke="url(#SvgjsLinearGradient1023)" stroke-linecap="round" class="Down"></path><path d="M1122 380L1121 595" stroke-width="6" stroke="url(#SvgjsLinearGradient1023)" stroke-linecap="round" class="Down"></path><path d="M744 471L743 258" stroke-width="10" stroke="url(#SvgjsLinearGradient1023)" stroke-linecap="round" class="Down"></path><path d="M594 159L593 422" stroke-width="8" stroke="url(#SvgjsLinearGradient1024)" stroke-linecap="round" class="Up"></path><path d="M1436 497L1435 182" stroke-width="6" stroke="url(#SvgjsLinearGradient1024)" stroke-linecap="round" class="Up"></path><path d="M889 454L888 62" stroke-width="6" stroke="url(#SvgjsLinearGradient1023)" stroke-linecap="round" class="Down"></path><path d="M482 427L481 756" stroke-width="6" stroke="url(#SvgjsLinearGradient1023)" stroke-linecap="round" class="Down"></path><path d="M1139 382L1138 623" stroke-width="10" stroke="url(#SvgjsLinearGradient1024)" stroke-linecap="round" class="Up"></path><path d="M829 391L828 64" stroke-width="10" stroke="url(#SvgjsLinearGradient1024)" stroke-linecap="round" class="Up"></path><path d="M1187 4L1186 -152" stroke-width="6" stroke="url(#SvgjsLinearGradient1023)" stroke-linecap="round" class="Down"></path><path d="M804 397L803 653" stroke-width="6" stroke="url(#SvgjsLinearGradient1023)" stroke-linecap="round" class="Down"></path><path d="M669 146L668 391" stroke-width="6" stroke="url(#SvgjsLinearGradient1023)" stroke-linecap="round" class="Down"></path><path d="M1352 367L1351 564" stroke-width="10" stroke="url(#SvgjsLinearGradient1023)" stroke-linecap="round" class="Down"></path><path d="M756 182L755 -39" stroke-width="10" stroke="url(#SvgjsLinearGradient1023)" stroke-linecap="round" class="Down"></path><path d="M410 435L409 46" stroke-width="6" stroke="url(#SvgjsLinearGradient1024)" stroke-linecap="round" class="Up"></path><path d="M281 320L280 95" stroke-width="6" stroke="url(#SvgjsLinearGradient1023)" stroke-linecap="round" class="Down"></path></g><defs><mask id="SvgjsMask1022"><rect width="1440" height="560" fill="#ffffff"></rect></mask><linearGradient x1="0%" y1="0%" x2="0%" y2="100%" id="SvgjsLinearGradient1023"><stop stop-color="rgba(219, 104, 104, 0)" offset="0"></stop><stop stop-color="rgba(219, 104, 104, 1)" offset="1"></stop></linearGradient><linearGradient x1="0%" y1="100%" x2="0%" y2="0%" id="SvgjsLinearGradient1024"><stop stop-color="rgba(219, 104, 104, 0)" offset="0"></stop><stop stop-color="rgba(219, 104, 104, 1)" offset="1"></stop></linearGradient></defs></svg>